<svg width="119" height="210" viewBox="0 0 119 210" fill="none" xmlns="http://www.w3.org/2000/svg">
<path d="M118.058 62.2139C118.058 61.0922 117.457 60.1082 116.481 59.6329L14.8995 10.1174C13.9235 9.64133 12.7212 9.74694 11.7456 10.3933L1.57696 17.1282C0.600926 17.7746 0 18.8638 0 19.9859L0.00925282 148.463C0.00925282 149.585 0.610599 150.569 1.58621 151.044L103.175 200.553C103.663 200.79 104.208 200.883 104.752 200.835C105.297 200.788 105.842 200.6 106.329 200.277C106.33 200.276 106.331 200.276 106.331 200.275L116.49 193.536C117.465 192.89 118.065 191.801 118.065 190.68L118.058 62.2139ZM13.3226 16.6009L108.6 63.0434L104.752 65.5958L9.46174 19.1577L13.3226 16.6009ZM101.599 192.532L6.31708 146.098L6.30825 24.8731L101.599 71.3111V192.532ZM107.907 191.975V70.7576L111.75 68.2086L111.757 189.421L107.907 191.975Z" fill="#DEDEDE"/>
<path d="M11.7456 144.315L93.0169 183.922C93.5047 184.16 94.0493 184.252 94.5939 184.205C95.1385 184.157 95.683 183.969 96.1708 183.646C97.1465 183 97.7478 181.91 97.7478 180.788L97.7398 75.6706C97.7398 74.549 97.1385 73.5649 96.1629 73.0892L14.8995 33.4869C13.9239 33.0113 12.7212 33.1165 11.7456 33.7629C10.77 34.4093 10.1686 35.4981 10.1686 36.6202V141.734C10.1686 142.856 10.77 143.84 11.7456 144.315ZM16.4765 41.507L91.4324 78.0353L91.44 175.902L16.4769 139.369L16.4765 41.507Z" fill="#DEDEDE"/>
<path d="M75.4071 82.4058L40.2965 65.295C39.3209 64.8194 38.1182 64.9246 37.1426 65.571C36.167 66.2174 35.5656 67.3062 35.5656 68.4283V135.704C35.5656 136.826 36.167 137.81 37.1426 138.286L48.8461 143.989C49.3339 144.227 49.8785 144.319 50.4231 144.272C50.9676 144.224 51.5122 144.036 52 143.713C52.9756 143.067 53.577 141.978 53.577 140.856V119.384L72.2532 128.486C73.2288 128.961 74.4315 128.856 75.4071 128.21C76.3827 127.563 76.9841 126.474 76.9841 125.352V84.9868C76.9841 83.8655 76.3832 82.8815 75.4071 82.4058ZM70.6763 120.466L52 111.364C51.0244 110.889 49.8217 110.994 48.8461 111.64C47.8705 112.287 47.2692 113.376 47.2692 114.498V135.969L41.8734 133.34V73.3155L70.6763 87.3519V120.466Z" fill="#DEDEDE"/>
<path d="M48.8465 103.624L60.5404 109.323C61.0282 109.561 61.5728 109.653 62.1174 109.605C62.6615 109.558 63.2057 109.37 63.6935 109.048C64.6691 108.402 65.2705 107.313 65.2713 106.192L65.281 92.7414C65.2818 91.6184 64.6805 90.6335 63.704 90.1579L52.0005 84.4545C51.0249 83.9788 49.8222 84.084 48.8465 84.7304C47.8709 85.3768 47.2696 86.4656 47.2696 87.5877V101.043C47.2696 102.164 47.8705 103.148 48.8465 103.624ZM53.5774 92.4741L58.9719 95.1029L58.9673 101.304L53.5774 98.6777V92.4741Z" fill="#DEDEDE"/>
</svg>
