<svg width="185" height="192" viewBox="0 0 185 192" fill="none" xmlns="http://www.w3.org/2000/svg">
<rect width="185" height="192" fill="#3182CE"/>
<path d="M142.216 66.2574C142.216 65.3188 141.712 64.4513 140.892 63.9822L55.5619 15.1096C54.742 14.6397 53.732 14.6401 52.9125 15.1096L44.3707 20.001C43.5508 20.4704 43.046 21.3379 43.046 22.2769L43.0538 129.79C43.0538 130.728 43.5589 131.596 44.3785 132.065L129.715 180.932C130.125 181.167 130.582 181.285 131.04 181.285C131.497 181.285 131.955 181.167 132.364 180.932C132.365 180.932 132.366 180.932 132.366 180.931L140.9 176.036C141.719 175.566 142.223 174.699 142.223 173.761L142.216 66.2574ZM54.2372 20.4196L134.272 66.2592L131.039 68.1133L50.994 22.2766L54.2372 20.4196ZM128.391 174.105L48.3525 128.273L48.3451 26.8285L128.391 72.6652V174.105ZM133.689 174.101V72.6638L136.918 70.8121L136.924 172.245L133.689 174.101Z" fill="#DEDEDE"/>
<path d="M52.9126 127.178L121.182 166.272C121.592 166.507 122.049 166.624 122.506 166.624C122.964 166.624 123.421 166.507 123.831 166.272C124.651 165.802 125.156 164.935 125.156 163.996L125.149 76.0308C125.149 75.0921 124.644 74.2246 123.824 73.7552L55.5619 34.6657C54.7424 34.1962 53.7321 34.1962 52.9126 34.6657C52.093 35.1352 51.5879 36.0023 51.5879 36.9413V124.903C51.5879 125.842 52.093 126.709 52.9126 127.178ZM56.8866 41.4925L119.851 77.5478L119.857 159.445L56.8869 123.386L56.8866 41.4925Z" fill="#DEDEDE"/>
<path d="M106.389 80.0319L76.8958 63.1427C76.0762 62.6732 75.066 62.6732 74.2464 63.1427C73.4269 63.6122 72.9218 64.4793 72.9218 65.4183V121.716C72.9218 122.655 73.4269 123.522 74.2464 123.992L84.0776 129.621C84.4874 129.856 84.9448 129.973 85.4023 129.973C85.8597 129.973 86.3172 129.856 86.7269 129.621C87.5465 129.152 88.0516 128.285 88.0516 127.346V109.378L103.74 118.361C104.559 118.831 105.57 118.831 106.389 118.361C107.209 117.892 107.714 117.025 107.714 116.086V82.3071C107.714 81.3689 107.209 80.5014 106.389 80.0319ZM102.415 111.535L86.7269 102.551C85.9074 102.082 84.8971 102.082 84.0776 102.551C83.2581 103.021 82.7529 103.888 82.7529 104.827V122.795L78.2204 120.199V69.9698L102.415 83.8245V111.535Z" fill="#DEDEDE"/>
<path d="M84.078 95.843L93.901 101.468C94.3108 101.703 94.7682 101.82 95.2257 101.82C95.6828 101.82 96.1399 101.703 96.5496 101.469C97.3692 101 97.8743 100.133 97.875 99.1945L97.8831 87.9395C97.8839 86.9999 97.3787 86.1317 96.5585 85.6622L86.7273 80.0326C85.9078 79.5631 84.8975 79.5631 84.078 80.0326C83.2584 80.502 82.7533 81.3692 82.7533 82.3082V93.5677C82.7533 94.506 83.2581 95.3735 84.078 95.843ZM88.052 86.859L92.5834 89.4538L92.5795 94.643L88.052 92.0503V86.859Z" fill="#DEDEDE"/>
</svg>
